<svg xmlns="http://www.w3.org/2000/svg" xmlns:xlink="http://www.w3.org/1999/xlink" width="365" zoomAndPan="magnify" viewBox="0 0 273.75 85.499998" height="114" preserveAspectRatio="xMidYMid meet" version="1.0"><defs><g/><clipPath id="a14d13cdbc"><path d="M 1.109375 24.742188 L 59.269531 24.742188 L 59.269531 60.535156 L 1.109375 60.535156 Z M 1.109375 24.742188 " clip-rule="nonzero"/></clipPath></defs><g clip-path="url(#a14d13cdbc)"><path fill="#dd2590" d="M 30.277344 24.761719 C 14.167969 24.761719 1.109375 42.503906 1.109375 42.503906 C 1.109375 42.503906 14.167969 60.246094 30.277344 60.246094 C 46.390625 60.246094 59.445312 42.503906 59.445312 42.503906 C 59.445312 42.503906 46.386719 24.761719 30.277344 24.761719 Z M 30.277344 57.441406 C 29.296875 57.441406 28.328125 57.34375 27.363281 57.152344 C 26.402344 56.960938 25.46875 56.679688 24.5625 56.304688 C 23.65625 55.929688 22.792969 55.46875 21.980469 54.925781 C 21.164062 54.378906 20.40625 53.761719 19.714844 53.066406 C 19.019531 52.375 18.402344 51.617188 17.855469 50.804688 C 17.3125 49.988281 16.851562 49.125 16.476562 48.21875 C 16.101562 47.3125 15.816406 46.378906 15.625 45.417969 C 15.433594 44.457031 15.335938 43.484375 15.335938 42.503906 C 15.335938 41.523438 15.433594 40.550781 15.625 39.589844 C 15.816406 38.625 16.097656 37.691406 16.472656 36.785156 C 16.851562 35.878906 17.308594 35.019531 17.855469 34.203125 C 18.398438 33.386719 19.019531 32.632812 19.710938 31.9375 C 20.40625 31.246094 21.160156 30.625 21.976562 30.082031 C 22.792969 29.535156 23.652344 29.078125 24.558594 28.699219 C 25.464844 28.324219 26.398438 28.042969 27.363281 27.851562 C 28.324219 27.660156 29.296875 27.5625 30.277344 27.5625 C 31.257812 27.5625 32.230469 27.660156 33.191406 27.851562 C 34.152344 28.042969 35.085938 28.328125 35.992188 28.703125 C 36.898438 29.078125 37.761719 29.539062 38.578125 30.082031 C 39.390625 30.628906 40.144531 31.246094 40.839844 31.941406 C 41.535156 32.636719 42.152344 33.390625 42.699219 34.207031 C 43.242188 35.019531 43.703125 35.882812 44.078125 36.789062 C 44.453125 37.695312 44.734375 38.628906 44.925781 39.589844 C 45.117188 40.554688 45.214844 41.523438 45.214844 42.503906 C 45.214844 43.488281 45.117188 44.457031 44.925781 45.417969 C 44.734375 46.378906 44.449219 47.316406 44.074219 48.21875 C 43.699219 49.125 43.242188 49.988281 42.695312 50.800781 C 42.152344 51.617188 41.53125 52.371094 40.839844 53.066406 C 40.144531 53.757812 39.390625 54.378906 38.574219 54.921875 C 37.761719 55.46875 36.898438 55.925781 35.992188 56.300781 C 35.085938 56.679688 34.152344 56.960938 33.191406 57.152344 C 32.230469 57.34375 31.257812 57.441406 30.277344 57.441406 Z M 38.597656 42.503906 C 38.597656 43.050781 38.542969 43.59375 38.4375 44.128906 C 38.332031 44.664062 38.171875 45.183594 37.964844 45.6875 C 37.753906 46.195312 37.5 46.671875 37.195312 47.125 C 36.890625 47.582031 36.546875 48 36.160156 48.386719 C 35.773438 48.773438 35.351562 49.117188 34.898438 49.421875 C 34.445312 49.722656 33.964844 49.980469 33.460938 50.1875 C 32.957031 50.398438 32.433594 50.554688 31.898438 50.664062 C 31.363281 50.769531 30.824219 50.820312 30.277344 50.820312 C 29.730469 50.820312 29.191406 50.769531 28.652344 50.660156 C 28.117188 50.554688 27.597656 50.398438 27.09375 50.1875 C 26.589844 49.976562 26.109375 49.722656 25.65625 49.417969 C 25.203125 49.113281 24.78125 48.769531 24.394531 48.382812 C 24.007812 47.996094 23.664062 47.578125 23.359375 47.121094 C 23.058594 46.667969 22.800781 46.1875 22.59375 45.683594 C 22.382812 45.179688 22.226562 44.660156 22.121094 44.125 C 22.011719 43.589844 21.960938 43.046875 21.960938 42.5 C 21.960938 41.953125 22.011719 41.414062 22.121094 40.878906 C 22.226562 40.34375 22.382812 39.820312 22.59375 39.316406 C 22.800781 38.8125 23.058594 38.332031 23.363281 37.878906 C 23.664062 37.425781 24.011719 37.003906 24.398438 36.617188 C 24.78125 36.234375 25.203125 35.886719 25.65625 35.585938 C 26.113281 35.28125 26.589844 35.023438 27.09375 34.816406 C 27.601562 34.605469 28.121094 34.449219 28.65625 34.34375 C 29.191406 34.234375 29.734375 34.183594 30.277344 34.183594 C 30.824219 34.183594 31.367188 34.234375 31.902344 34.34375 C 32.4375 34.449219 32.957031 34.605469 33.464844 34.816406 C 33.96875 35.027344 34.449219 35.28125 34.902344 35.585938 C 35.355469 35.890625 35.777344 36.234375 36.164062 36.621094 C 36.550781 37.007812 36.894531 37.425781 37.199219 37.882812 C 37.5 38.335938 37.757812 38.816406 37.964844 39.320312 C 38.175781 39.824219 38.332031 40.347656 38.4375 40.882812 C 38.546875 41.417969 38.597656 41.960938 38.597656 42.503906 Z M 38.597656 42.503906 " fill-opacity="1" fill-rule="nonzero"/></g><g fill="#000000" fill-opacity="1"><g transform="translate(67.694602, 58.15988)"><g><path d="M 9.671875 0.3125 C 6.546875 0.3125 4.289062 -0.457031 2.90625 -2 C 1.53125 -3.539062 0.84375 -6.03125 0.84375 -9.46875 L 0.84375 -12.8125 L 7.59375 -12.8125 L 7.59375 -8.546875 C 7.59375 -6.835938 8.132812 -5.984375 9.21875 -5.984375 C 9.832031 -5.984375 10.257812 -6.160156 10.5 -6.515625 C 10.738281 -6.878906 10.859375 -7.488281 10.859375 -8.34375 C 10.859375 -9.46875 10.722656 -10.394531 10.453125 -11.125 C 10.191406 -11.851562 9.851562 -12.460938 9.4375 -12.953125 C 9.03125 -13.453125 8.296875 -14.21875 7.234375 -15.25 L 4.265625 -18.21875 C 1.984375 -20.445312 0.84375 -22.921875 0.84375 -25.640625 C 0.84375 -28.566406 1.515625 -30.796875 2.859375 -32.328125 C 4.203125 -33.859375 6.164062 -34.625 8.75 -34.625 C 11.832031 -34.625 14.050781 -33.804688 15.40625 -32.171875 C 16.769531 -30.535156 17.453125 -27.972656 17.453125 -24.484375 L 10.46875 -24.484375 L 10.421875 -26.84375 C 10.421875 -27.289062 10.296875 -27.644531 10.046875 -27.90625 C 9.796875 -28.175781 9.441406 -28.3125 8.984375 -28.3125 C 8.453125 -28.3125 8.050781 -28.164062 7.78125 -27.875 C 7.519531 -27.582031 7.390625 -27.179688 7.390625 -26.671875 C 7.390625 -25.554688 8.03125 -24.398438 9.3125 -23.203125 L 13.296875 -19.375 C 14.234375 -18.46875 15.003906 -17.609375 15.609375 -16.796875 C 16.222656 -15.984375 16.71875 -15.023438 17.09375 -13.921875 C 17.46875 -12.816406 17.65625 -11.503906 17.65625 -9.984375 C 17.65625 -6.597656 17.035156 -4.035156 15.796875 -2.296875 C 14.554688 -0.554688 12.515625 0.3125 9.671875 0.3125 Z M 9.671875 0.3125 "/></g></g></g><g fill="#000000" fill-opacity="1"><g transform="translate(83.904064, 58.15988)"><g><path d="M 1.359375 -31.1875 L 1.359375 -36.0625 L 8.34375 -36.0625 L 8.34375 -31.1875 Z M 1.359375 0 L 1.359375 -29.234375 L 8.34375 -29.234375 L 8.34375 0 Z M 1.359375 0 "/></g></g></g><g fill="#000000" fill-opacity="1"><g transform="translate(91.409513, 58.15988)"><g><path d="M 1.390625 -29.234375 L 8.234375 -29.234375 L 8.234375 -25.84375 C 8.546875 -27.09375 9.085938 -28.019531 9.859375 -28.625 C 10.628906 -29.238281 11.722656 -29.546875 13.140625 -29.546875 C 14.285156 -29.546875 15.273438 -29.285156 16.109375 -28.765625 C 16.953125 -28.253906 17.546875 -27.546875 17.890625 -26.640625 C 18.472656 -27.648438 19.125 -28.382812 19.84375 -28.84375 C 20.5625 -29.3125 21.5625 -29.546875 22.84375 -29.546875 C 25.132812 -29.546875 26.722656 -28.847656 27.609375 -27.453125 C 28.503906 -26.054688 28.953125 -24.023438 28.953125 -21.359375 L 28.875 0 L 21.84375 0 L 21.84375 -21.484375 C 21.84375 -23.378906 21.363281 -24.328125 20.40625 -24.328125 C 19.738281 -24.328125 19.257812 -24 18.96875 -23.34375 C 18.675781 -22.6875 18.53125 -21.90625 18.53125 -21 L 18.53125 0 L 11.546875 0 L 11.546875 -21.484375 C 11.546875 -22.304688 11.457031 -22.96875 11.28125 -23.46875 C 11.101562 -23.976562 10.738281 -24.234375 10.1875 -24.234375 C 9.46875 -24.234375 8.960938 -23.878906 8.671875 -23.171875 C 8.378906 -22.472656 8.234375 -21.628906 8.234375 -20.640625 L 8.234375 0 L 1.390625 0 Z M 1.390625 -29.234375 "/></g></g></g><g fill="#000000" fill-opacity="1"><g transform="translate(119.477208, 58.15988)"><g><path d="M 1.390625 -29.234375 L 8.5 -29.234375 L 8.5 -27.671875 C 9.519531 -28.921875 10.921875 -29.546875 12.703125 -29.546875 C 14.960938 -29.546875 16.535156 -28.785156 17.421875 -27.265625 C 18.316406 -25.753906 18.765625 -23.65625 18.765625 -20.96875 L 18.765625 -10.140625 C 18.765625 -7.847656 18.628906 -5.976562 18.359375 -4.53125 C 18.097656 -3.082031 17.515625 -1.910156 16.609375 -1.015625 C 15.703125 -0.128906 14.332031 0.3125 12.5 0.3125 C 10.738281 0.3125 9.40625 -0.175781 8.5 -1.15625 L 8.5 5.828125 L 1.390625 5.828125 Z M 10.1875 -5.109375 C 10.820312 -5.109375 11.234375 -5.398438 11.421875 -5.984375 C 11.609375 -6.578125 11.703125 -7.429688 11.703125 -8.546875 L 11.703125 -20.96875 C 11.703125 -21.976562 11.609375 -22.75 11.421875 -23.28125 C 11.234375 -23.8125 10.804688 -24.078125 10.140625 -24.078125 C 9.046875 -24.078125 8.5 -23.066406 8.5 -21.046875 L 8.5 -8.234375 C 8.5 -7.242188 8.613281 -6.472656 8.84375 -5.921875 C 9.070312 -5.378906 9.519531 -5.109375 10.1875 -5.109375 Z M 10.1875 -5.109375 "/></g></g></g><g fill="#000000" fill-opacity="1"><g transform="translate(137.243813, 58.15988)"><g><path d="M 1.390625 0 L 1.390625 -34.5 L 8.5 -34.5 L 8.5 0 Z M 1.390625 0 "/></g></g></g><g fill="#000000" fill-opacity="1"><g transform="translate(144.948893, 58.15988)"><g><path d="M 9.578125 0.3125 C 6.578125 0.3125 4.421875 -0.507812 3.109375 -2.15625 C 1.804688 -3.800781 1.15625 -6.265625 1.15625 -9.546875 L 1.15625 -21.28125 C 1.15625 -23.976562 1.925781 -26.03125 3.46875 -27.4375 C 5.019531 -28.84375 7.175781 -29.546875 9.9375 -29.546875 C 15.5625 -29.546875 18.375 -26.789062 18.375 -21.28125 L 18.375 -19.171875 C 18.375 -17.035156 18.347656 -15.304688 18.296875 -13.984375 L 8.140625 -13.984375 L 8.140625 -8.3125 C 8.140625 -7.300781 8.242188 -6.507812 8.453125 -5.9375 C 8.671875 -5.363281 9.128906 -5.078125 9.828125 -5.078125 C 10.359375 -5.078125 10.734375 -5.234375 10.953125 -5.546875 C 11.179688 -5.867188 11.316406 -6.234375 11.359375 -6.640625 C 11.398438 -7.054688 11.421875 -7.664062 11.421875 -8.46875 L 11.421875 -11.296875 L 18.375 -11.296875 L 18.375 -9.625 C 18.375 -6.21875 17.710938 -3.707031 16.390625 -2.09375 C 15.078125 -0.488281 12.804688 0.3125 9.578125 0.3125 Z M 11.421875 -17.453125 L 11.421875 -21.203125 C 11.421875 -23.304688 10.898438 -24.359375 9.859375 -24.359375 C 8.691406 -24.359375 8.109375 -23.304688 8.109375 -21.203125 L 8.109375 -17.453125 Z M 11.421875 -17.453125 "/></g></g></g><g fill="#dd2590" fill-opacity="1"><g transform="translate(162.239359, 58.15988)"><g><path d="M 1.078125 0 L 1.078125 -5.828125 L 8.0625 -5.828125 L 8.0625 0 Z M 1.078125 0 "/></g></g></g><g fill="#000000" fill-opacity="1"><g transform="translate(169.194777, 58.15988)"><g><path d="M 1.515625 -34.3125 L 12.0625 -34.3125 C 13.738281 -34.3125 15.035156 -33.929688 15.953125 -33.171875 C 16.867188 -32.410156 17.488281 -31.34375 17.8125 -29.96875 C 18.132812 -28.601562 18.296875 -26.851562 18.296875 -24.71875 C 18.296875 -22.78125 18.039062 -21.265625 17.53125 -20.171875 C 17.03125 -19.078125 16.148438 -18.316406 14.890625 -17.890625 C 15.929688 -17.679688 16.6875 -17.160156 17.15625 -16.328125 C 17.625 -15.503906 17.859375 -14.390625 17.859375 -12.984375 L 17.765625 0 L 11.0625 0 L 11.0625 -13.421875 C 11.0625 -14.378906 10.875 -14.988281 10.5 -15.25 C 10.125 -15.519531 9.445312 -15.65625 8.46875 -15.65625 L 8.46875 0 L 1.515625 0 Z M 10.140625 -21.609375 C 11.097656 -21.609375 11.578125 -22.644531 11.578125 -24.71875 C 11.578125 -25.625 11.535156 -26.300781 11.453125 -26.75 C 11.378906 -27.207031 11.234375 -27.519531 11.015625 -27.6875 C 10.804688 -27.863281 10.503906 -27.953125 10.109375 -27.953125 L 8.5 -27.953125 L 8.5 -21.609375 Z M 10.140625 -21.609375 "/></g></g></g><g fill="#000000" fill-opacity="1"><g transform="translate(186.043065, 58.15988)"><g><path d="M 9.578125 0.3125 C 6.578125 0.3125 4.421875 -0.507812 3.109375 -2.15625 C 1.804688 -3.800781 1.15625 -6.265625 1.15625 -9.546875 L 1.15625 -21.28125 C 1.15625 -23.976562 1.925781 -26.03125 3.46875 -27.4375 C 5.019531 -28.84375 7.175781 -29.546875 9.9375 -29.546875 C 15.5625 -29.546875 18.375 -26.789062 18.375 -21.28125 L 18.375 -19.171875 C 18.375 -17.035156 18.347656 -15.304688 18.296875 -13.984375 L 8.140625 -13.984375 L 8.140625 -8.3125 C 8.140625 -7.300781 8.242188 -6.507812 8.453125 -5.9375 C 8.671875 -5.363281 9.128906 -5.078125 9.828125 -5.078125 C 10.359375 -5.078125 10.734375 -5.234375 10.953125 -5.546875 C 11.179688 -5.867188 11.316406 -6.234375 11.359375 -6.640625 C 11.398438 -7.054688 11.421875 -7.664062 11.421875 -8.46875 L 11.421875 -11.296875 L 18.375 -11.296875 L 18.375 -9.625 C 18.375 -6.21875 17.710938 -3.707031 16.390625 -2.09375 C 15.078125 -0.488281 12.804688 0.3125 9.578125 0.3125 Z M 11.421875 -17.453125 L 11.421875 -21.203125 C 11.421875 -23.304688 10.898438 -24.359375 9.859375 -24.359375 C 8.691406 -24.359375 8.109375 -23.304688 8.109375 -21.203125 L 8.109375 -17.453125 Z M 11.421875 -17.453125 "/></g></g></g><g fill="#000000" fill-opacity="1"><g transform="translate(203.33055, 58.15988)"><g><path d="M 1.390625 -29.234375 L 8.5 -29.234375 L 8.5 -27.671875 C 9.519531 -28.921875 10.921875 -29.546875 12.703125 -29.546875 C 14.960938 -29.546875 16.535156 -28.785156 17.421875 -27.265625 C 18.316406 -25.753906 18.765625 -23.65625 18.765625 -20.96875 L 18.765625 -10.140625 C 18.765625 -7.847656 18.628906 -5.976562 18.359375 -4.53125 C 18.097656 -3.082031 17.515625 -1.910156 16.609375 -1.015625 C 15.703125 -0.128906 14.332031 0.3125 12.5 0.3125 C 10.738281 0.3125 9.40625 -0.175781 8.5 -1.15625 L 8.5 5.828125 L 1.390625 5.828125 Z M 10.1875 -5.109375 C 10.820312 -5.109375 11.234375 -5.398438 11.421875 -5.984375 C 11.609375 -6.578125 11.703125 -7.429688 11.703125 -8.546875 L 11.703125 -20.96875 C 11.703125 -21.976562 11.609375 -22.75 11.421875 -23.28125 C 11.234375 -23.8125 10.804688 -24.078125 10.140625 -24.078125 C 9.046875 -24.078125 8.5 -23.066406 8.5 -21.046875 L 8.5 -8.234375 C 8.5 -7.242188 8.613281 -6.472656 8.84375 -5.921875 C 9.070312 -5.378906 9.519531 -5.109375 10.1875 -5.109375 Z M 10.1875 -5.109375 "/></g></g></g><g fill="#000000" fill-opacity="1"><g transform="translate(221.097154, 58.15988)"><g><path d="M 9.90625 0.3125 C 4.070312 0.3125 1.15625 -2.707031 1.15625 -8.75 L 1.15625 -20.484375 C 1.15625 -23.253906 1.929688 -25.457031 3.484375 -27.09375 C 5.046875 -28.726562 7.1875 -29.546875 9.90625 -29.546875 C 12.625 -29.546875 14.757812 -28.726562 16.3125 -27.09375 C 17.875 -25.457031 18.65625 -23.253906 18.65625 -20.484375 L 18.65625 -8.75 C 18.65625 -2.707031 15.738281 0.3125 9.90625 0.3125 Z M 9.90625 -5.078125 C 10.46875 -5.078125 10.878906 -5.273438 11.140625 -5.671875 C 11.410156 -6.066406 11.546875 -6.613281 11.546875 -7.3125 L 11.546875 -21.609375 C 11.546875 -23.304688 11 -24.15625 9.90625 -24.15625 C 8.8125 -24.15625 8.265625 -23.304688 8.265625 -21.609375 L 8.265625 -7.3125 C 8.265625 -6.613281 8.394531 -6.066406 8.65625 -5.671875 C 8.925781 -5.273438 9.34375 -5.078125 9.90625 -5.078125 Z M 9.90625 -5.078125 "/></g></g></g></svg>